<?xml version="1.0" encoding="UTF-8"?>
<svg width="33px" height="32px" viewBox="0 0 33 32" version="1.1" xmlns="http://www.w3.org/2000/svg" xmlns:xlink="http://www.w3.org/1999/xlink">
    <!-- Generator: Sketch 50.2 (55047) - http://www.bohemiancoding.com/sketch -->
    <title>apple-music</title>
    <desc>Created with Sketch.</desc>
    <defs>
        <filter x="-1.1%" y="-20.0%" width="102.2%" height="156.0%" filterUnits="objectBoundingBox" id="filter-1">
            <feOffset dx="0" dy="2" in="SourceAlpha" result="shadowOffsetOuter1"></feOffset>
            <feGaussianBlur stdDeviation="2" in="shadowOffsetOuter1" result="shadowBlurOuter1"></feGaussianBlur>
            <feColorMatrix values="0 0 0 0 0   0 0 0 0 0   0 0 0 0 0  0 0 0 0.5 0" type="matrix" in="shadowBlurOuter1" result="shadowMatrixOuter1"></feColorMatrix>
            <feMerge>
                <feMergeNode in="shadowMatrixOuter1"></feMergeNode>
                <feMergeNode in="SourceGraphic"></feMergeNode>
            </feMerge>
        </filter>
    </defs>
    <g id="UI" stroke="none" stroke-width="1" fill="none" fill-rule="evenodd">
        <g id="Group-8-Copy-2" filter="url(#filter-1)" transform="translate(-428.000000, 2.000000)" fill="#FFFFFF" fill-rule="nonzero">
            <g id="apple-music" transform="translate(432.000000, 0.000000)">
                <path d="M24.3225,5.99583333 C24.3216667,5.27333333 24.2591667,4.55583333 24.0875,3.85083333 C23.7775,2.57083333 23.0483333,1.59 21.9533333,0.873333333 C21.3916667,0.505833333 20.775,0.279166667 20.1166667,0.160833333 C19.61,0.07 19.0991667,0.0283333333 18.585,0.0133333333 C18.545,0.0116666667 18.5033333,0.00583333333 18.4633333,0.00166666667 L6.69333333,0.00166666667 C6.545,0.01 6.39666667,0.0183333333 6.24833333,0.0266666667 C5.51666667,0.0683333333 4.79,0.148333333 4.1025,0.42 C2.7925,0.938333333 1.84916667,1.84166667 1.29583333,3.14 C1.10833333,3.58 1.01,4.04666667 0.940833333,4.51916667 C0.885,4.9025 0.853333333,5.2875 0.8425,5.675 C0.841666667,5.705 0.835,5.735 0.8325,5.765 L0.8325,17.7308333 C0.840833333,17.8691667 0.848333333,18.0075 0.8575,18.1458333 C0.906666667,18.9433333 1.00833333,19.7358333 1.34416667,20.4683333 C1.98083333,21.8583333 3.045,22.7716667 4.51,23.2108333 C4.9225,23.335 5.3475,23.3941667 5.77583333,23.4341667 C6.31833333,23.4858333 6.8625,23.4941667 7.40666667,23.4941667 C11.0058333,23.4941667 14.605,23.4941667 18.2041667,23.4925 C18.7183333,23.4925 19.23,23.46 19.7408333,23.3958333 C20.5466667,23.2925 21.3041667,23.0525 21.9883333,22.6025 C22.8116667,22.0608333 23.4291667,21.3425 23.8283333,20.4408333 C24.0108333,20.0283333 24.115,19.59 24.19,19.145 C24.3016667,18.4841667 24.3258333,17.8158333 24.325,17.1475 C24.3233333,13.43 24.3258333,9.71333333 24.3225,5.99583333 Z M18.035,9.90166667 C18.035,11.7658333 18.0358333,13.63 18.0341667,15.4933333 C18.0341667,15.9016667 17.9783333,16.3025 17.7966667,16.6741667 C17.5141667,17.2525 17.0516667,17.6158333 16.4383333,17.79 C16.0966667,17.8875 15.7475,17.9433333 15.3916667,17.9591667 C14.46,18.0033333 13.655,17.3716667 13.4883333,16.4558333 C13.35,15.7 13.7116667,14.8666667 14.5058333,14.4775 C14.8225,14.3208333 15.1608333,14.2333333 15.5025,14.16 C15.8725,14.08 16.2441667,14.01 16.6125,13.925 C16.8808333,13.8633333 17.06,13.6991667 17.1125,13.42 C17.125,13.3583333 17.13,13.2941667 17.13,13.2308333 C17.1308333,11.4541667 17.1308333,9.67833333 17.1291667,7.9025 C17.1291667,7.84166667 17.1191667,7.78 17.1041667,7.72166667 C17.0658333,7.57416667 16.9583333,7.48416667 16.8066667,7.4925 C16.65,7.50166667 16.4958333,7.52666667 16.3416667,7.5575 C15.5975,7.70416667 14.8541667,7.855 14.1108333,8.005 C13.3516667,8.1575 12.5925,8.31166667 11.8325,8.465 C11.3841667,8.55583333 10.9358333,8.64583333 10.4875,8.73666667 C10.4716667,8.74 10.4558333,8.745 10.4408333,8.74916667 C10.17,8.82416667 10.0716667,8.94833333 10.0591667,9.22833333 C10.0575,9.27083333 10.0583333,9.31333333 10.0583333,9.35666667 C10.0575,11.9033333 10.0583333,14.4508333 10.0566667,16.9966667 C10.0566667,17.4083333 10.0108333,17.815 9.84583333,18.1975 C9.57333333,18.8258333 9.09166667,19.2166667 8.44166667,19.4058333 C8.09833333,19.505 7.74583333,19.5616667 7.38916667,19.5741667 C6.45083333,19.6091667 5.67166667,18.9858333 5.51083333,18.0625 C5.37166667,17.2666667 5.73583333,16.4125 6.63916667,16.03 C6.98833333,15.8833333 7.355,15.8025 7.72333333,15.7258333 C8.00416667,15.6666667 8.28583333,15.6133333 8.56583333,15.5533333 C8.94,15.4716667 9.13583333,15.2366667 9.15166667,14.8541667 C9.15333333,14.8041667 9.1525,14.7566667 9.1525,14.7066667 C9.1525,11.8091667 9.1525,8.91083333 9.15416667,6.01333333 C9.15416667,5.8925 9.16666667,5.76833333 9.195,5.65083333 C9.26333333,5.37166667 9.4625,5.2125 9.72916667,5.14333333 C9.97916667,5.07833333 10.2333333,5.03333333 10.4866667,4.98166667 C11.2041667,4.83666667 11.9216667,4.6925 12.6391667,4.54833333 C13.3808333,4.39833333 14.1216667,4.24916667 14.8633333,4.09916667 C15.5183333,3.96666667 16.1733333,3.8325 16.83,3.70333333 C17.045,3.66083333 17.2633333,3.6175 17.48,3.6 C17.7833333,3.57583333 17.9916667,3.76666667 18.0225,4.07166667 C18.03,4.14416667 18.0341667,4.2175 18.0341667,4.29083333 C18.0358333,6.16166667 18.0358333,8.03166667 18.035,9.90166667 Z" id="Shape"></path>
            </g>
        </g>
    </g>
</svg>