<?xml version="1.0" encoding="UTF-8"?>
<svg width="38px" height="24px" viewBox="0 0 38 24" version="1.1" xmlns="http://www.w3.org/2000/svg" xmlns:xlink="http://www.w3.org/1999/xlink">
    <!-- Generator: Sketch 50.2 (55047) - http://www.bohemiancoding.com/sketch -->
    <title>deezer</title>
    <desc>Created with Sketch.</desc>
    <defs>
        <filter x="-1.1%" y="-20.0%" width="102.2%" height="156.0%" filterUnits="objectBoundingBox" id="filter-1">
            <feOffset dx="0" dy="2" in="SourceAlpha" result="shadowOffsetOuter1"></feOffset>
            <feGaussianBlur stdDeviation="2" in="shadowOffsetOuter1" result="shadowBlurOuter1"></feGaussianBlur>
            <feColorMatrix values="0 0 0 0 0   0 0 0 0 0   0 0 0 0 0  0 0 0 0.5 0" type="matrix" in="shadowBlurOuter1" result="shadowMatrixOuter1"></feColorMatrix>
            <feMerge>
                <feMergeNode in="shadowMatrixOuter1"></feMergeNode>
                <feMergeNode in="SourceGraphic"></feMergeNode>
            </feMerge>
        </filter>
    </defs>
    <g id="UI" stroke="none" stroke-width="1" fill="none" fill-rule="evenodd">
        <g id="Group-8-Copy-2" filter="url(#filter-1)" transform="translate(-500.000000, -3.000000)" fill="#FFFFFF" fill-rule="nonzero">
            <g id="deezer" transform="translate(504.000000, 5.000000)">
                <path d="M24.5454545,0 L24.5454545,1.36363636 L30,1.36363636 L30,0 L24.5454545,0 Z M12.2727273,2.04545455 L12.2727273,3.40909091 L17.7272727,3.40909091 L17.7272727,2.04545455 L12.2727273,2.04545455 Z M24.5454545,2.04545455 L24.5454545,3.40909091 L30,3.40909091 L30,2.04545455 L24.5454545,2.04545455 Z M12.2727273,4.09090909 L12.2727273,5.45454545 L17.7272727,5.45454545 L17.7272727,4.09090909 L12.2727273,4.09090909 Z M24.5454545,4.09090909 L24.5454545,5.45454545 L30,5.45454545 L30,4.09090909 L24.5454545,4.09090909 Z M0,6.13636364 L0,7.5 L5.45454545,7.5 L5.45454545,6.13636364 L0,6.13636364 Z M12.2727273,6.13636364 L12.2727273,7.5 L17.7272727,7.5 L17.7272727,6.13636364 L12.2727273,6.13636364 Z M18.4090909,6.13636364 L18.4090909,7.5 L23.8636364,7.5 L23.8636364,6.13636364 L18.4090909,6.13636364 Z M24.5454545,6.13636364 L24.5454545,7.5 L30,7.5 L30,6.13636364 L24.5454545,6.13636364 Z M0,8.18181818 L0,9.54545455 L5.45454545,9.54545455 L5.45454545,8.18181818 L0,8.18181818 Z M12.2727273,8.18181818 L12.2727273,9.54545455 L17.7272727,9.54545455 L17.7272727,8.18181818 L12.2727273,8.18181818 Z M18.4090909,8.18181818 L18.4090909,9.54545455 L23.8636364,9.54545455 L23.8636364,8.18181818 L18.4090909,8.18181818 Z M24.5454545,8.18181818 L24.5454545,9.54545455 L30,9.54545455 L30,8.18181818 L24.5454545,8.18181818 Z M0,10.2272727 L0,11.5909091 L5.45454545,11.5909091 L5.45454545,10.2272727 L0,10.2272727 Z M6.13636364,10.2272727 L6.13636364,11.5909091 L11.5909091,11.5909091 L11.5909091,10.2272727 L6.13636364,10.2272727 Z M12.2727273,10.2272727 L12.2727273,11.5909091 L17.7272727,11.5909091 L17.7272727,10.2272727 L12.2727273,10.2272727 Z M18.4090909,10.2272727 L18.4090909,11.5909091 L23.8636364,11.5909091 L23.8636364,10.2272727 L18.4090909,10.2272727 Z M24.5454545,10.2272727 L24.5454545,11.5909091 L30,11.5909091 L30,10.2272727 L24.5454545,10.2272727 Z M0,12.2727273 L0,13.6363636 L5.45454545,13.6363636 L5.45454545,12.2727273 L0,12.2727273 Z M6.13636364,12.2727273 L6.13636364,13.6363636 L11.5909091,13.6363636 L11.5909091,12.2727273 L6.13636364,12.2727273 Z M12.2727273,12.2727273 L12.2727273,13.6363636 L17.7272727,13.6363636 L17.7272727,12.2727273 L12.2727273,12.2727273 Z M18.4090909,12.2727273 L18.4090909,13.6363636 L23.8636364,13.6363636 L23.8636364,12.2727273 L18.4090909,12.2727273 Z M24.5454545,12.2727273 L24.5454545,13.6363636 L30,13.6363636 L30,12.2727273 L24.5454545,12.2727273 Z M0,14.3181818 L0,15.6818182 L5.45454545,15.6818182 L5.45454545,14.3181818 L0,14.3181818 Z M6.13636364,14.3181818 L6.13636364,15.6818182 L11.5909091,15.6818182 L11.5909091,14.3181818 L6.13636364,14.3181818 Z M12.2727273,14.3181818 L12.2727273,15.6818182 L17.7272727,15.6818182 L17.7272727,14.3181818 L12.2727273,14.3181818 Z M18.4090909,14.3181818 L18.4090909,15.6818182 L23.8636364,15.6818182 L23.8636364,14.3181818 L18.4090909,14.3181818 Z M24.5454545,14.3181818 L24.5454545,15.6818182 L30,15.6818182 L30,14.3181818 L24.5454545,14.3181818 Z" id="Shape"></path>
            </g>
        </g>
    </g>
</svg>