<?xml version="1.0" encoding="UTF-8"?>
<svg width="33px" height="33px" viewBox="0 0 33 33" version="1.1" xmlns="http://www.w3.org/2000/svg" xmlns:xlink="http://www.w3.org/1999/xlink">
    <!-- Generator: Sketch 50.2 (55047) - http://www.bohemiancoding.com/sketch -->
    <title>facebook-messenger</title>
    <desc>Created with Sketch.</desc>
    <defs>
        <filter x="-1.1%" y="-20.0%" width="102.2%" height="156.0%" filterUnits="objectBoundingBox" id="filter-1">
            <feOffset dx="0" dy="2" in="SourceAlpha" result="shadowOffsetOuter1"></feOffset>
            <feGaussianBlur stdDeviation="2" in="shadowOffsetOuter1" result="shadowBlurOuter1"></feGaussianBlur>
            <feColorMatrix values="0 0 0 0 0   0 0 0 0 0   0 0 0 0 0  0 0 0 0.5 0" type="matrix" in="shadowBlurOuter1" result="shadowMatrixOuter1"></feColorMatrix>
            <feMerge>
                <feMergeNode in="shadowMatrixOuter1"></feMergeNode>
                <feMergeNode in="SourceGraphic"></feMergeNode>
            </feMerge>
        </filter>
    </defs>
    <g id="UI" stroke="none" stroke-width="1" fill="none" fill-rule="evenodd">
        <g id="Group-8-Copy-2" filter="url(#filter-1)" transform="translate(-356.000000, 2.000000)" fill="#FFFFFF" fill-rule="nonzero">
            <g id="facebook-messenger" transform="translate(360.000000, 0.000000)">
                <path d="M12.5,0 C5.59642857,0 0,5.18186728 0,11.5740741 C0,15.2164352 1.81770186,18.4653549 4.65838509,20.5869599 L4.65838509,25 L8.91451863,22.6641204 C10.0503882,22.9784722 11.2537267,23.1481481 12.5,23.1481481 C19.4035714,23.1481481 25,17.9662809 25,11.5740741 C25,5.18186728 19.4035714,0 12.5,0 Z M13.742236,15.5864198 L10.5590062,12.191358 L4.34782609,15.5864198 L11.1801242,8.33333333 L14.4409938,11.7283951 L20.5745342,8.33333333 L13.742236,15.5864198 Z" id="Shape"></path>
            </g>
        </g>
    </g>
</svg>