<?xml version="1.0" encoding="UTF-8"?>
<svg width="25px" height="21px" viewBox="0 0 25 21" version="1.1" xmlns="http://www.w3.org/2000/svg" xmlns:xlink="http://www.w3.org/1999/xlink">
    <!-- Generator: Sketch 50.2 (55047) - http://www.bohemiancoding.com/sketch -->
    <title>Fill 1 Copy 2</title>
    <desc>Created with Sketch.</desc>
    <defs></defs>
    <g id="UI" stroke="none" stroke-width="1" fill="none" fill-rule="evenodd">
        <g id="Group-8-Copy-2" transform="translate(-73.000000, -2.000000)" fill="#FFFFFF">
            <path d="M98,4.4046875 C97.0804687,4.8125 96.0914062,5.08828125 95.0539062,5.2125 C96.1132812,4.57734375 96.9265625,3.57265625 97.309375,2.375 C96.31875,2.9625 95.2203125,3.3890625 94.0523437,3.61953125 C93.1164062,2.62265625 91.7835937,2 90.3085938,2 C87.4757812,2 85.1796875,4.29609375 85.1796875,7.12890625 C85.1796875,7.53046875 85.225,7.921875 85.3125,8.29765625 C81.0492187,8.08359375 77.2703125,6.04140625 74.740625,2.93828125 C74.2992187,3.69609375 74.0460937,4.57734375 74.0460937,5.5171875 C74.0460937,7.29609375 74.9515625,8.86640625 76.3273437,9.7859375 C75.4867187,9.759375 74.6960937,9.52890625 74.0046875,9.14453125 C74.0039062,9.16640625 74.0039062,9.1875 74.0039062,9.209375 C74.0039062,11.6945313 75.771875,13.7671875 78.11875,14.2382812 C77.6882813,14.3554687 77.2351562,14.4179688 76.7671875,14.4179688 C76.4367187,14.4179688 76.115625,14.3859375 75.8023438,14.3265625 C76.4546875,16.3640625 78.3492187,17.846875 80.59375,17.8882813 C78.8382812,19.2640625 76.6265625,20.0835937 74.2234375,20.0835937 C73.809375,20.0835937 73.4015625,20.059375 73,20.0125 C75.2695312,21.4671875 77.965625,22.3164063 80.8625,22.3164063 C90.296875,22.3164063 95.4554687,14.5007812 95.4554687,7.7234375 C95.4554687,7.50078125 95.4507812,7.2796875 95.440625,7.059375 C96.4429687,6.33671875 97.3125,5.43359375 98,4.4046875" id="Fill-1-Copy-2"></path>
        </g>
    </g>
</svg>