<?xml version="1.0" encoding="UTF-8"?>
<svg width="25px" height="25px" viewBox="0 0 25 25" version="1.1" xmlns="http://www.w3.org/2000/svg" xmlns:xlink="http://www.w3.org/1999/xlink">
    <!-- Generator: Sketch 50.2 (55047) - http://www.bohemiancoding.com/sketch -->
    <title>Fill 36 Copy 2</title>
    <desc>Created with Sketch.</desc>
    <defs></defs>
    <g id="UI" stroke="none" stroke-width="1" fill="none" fill-rule="evenodd">
        <g id="Group-8-Copy-2" transform="translate(-217.000000, 0.000000)" fill="#FFFFFF">
            <path d="M236.875,11.125 C232.875,8.75 226.1875,8.5 222.375,9.6875 C221.75,9.875 221.125,9.5 220.9375,8.9375 C220.75,8.3125 221.125,7.6875 221.6875,7.5 C226.125,6.1875 233.4375,6.4375 238.0625,9.1875 C238.625,9.5 238.8125,10.25 238.5,10.8125 C238.1875,11.25 237.4375,11.4375 236.875,11.125 M236.75,14.625 C236.4375,15.0625 235.875,15.25 235.4375,14.9375 C232.0625,12.875 226.9375,12.25 223,13.5 C222.5,13.625 221.9375,13.375 221.8125,12.875 C221.6875,12.375 221.9375,11.8125 222.4375,11.6875 C227,10.3125 232.625,11 236.5,13.375 C236.875,13.5625 237.0625,14.1875 236.75,14.625 M235.25,18.0625 C235,18.4375 234.5625,18.5625 234.1875,18.3125 C231.25,16.5 227.5625,16.125 223.1875,17.125 C222.75,17.25 222.375,16.9375 222.25,16.5625 C222.125,16.125 222.4375,15.75 222.8125,15.625 C227.5625,14.5625 231.6875,15 234.9375,17 C235.375,17.1875 235.4375,17.6875 235.25,18.0625 M229.5,0 C222.625,0 217,5.625 217,12.5 C217,19.375 222.625,25 229.5,25 C236.375,25 242,19.375 242,12.5 C242,5.625 236.4375,0 229.5,0" id="Fill-36-Copy-2"></path>
        </g>
    </g>
</svg>