<?xml version="1.0" encoding="UTF-8"?>
<svg width="25px" height="25px" viewBox="0 0 25 25" version="1.1" xmlns="http://www.w3.org/2000/svg" xmlns:xlink="http://www.w3.org/1999/xlink">
    <!-- Generator: Sketch 50.2 (55047) - http://www.bohemiancoding.com/sketch -->
    <title>instagram</title>
    <desc>Created with Sketch.</desc>
    <defs></defs>
    <g id="UI" stroke="none" stroke-width="1" fill="none" fill-rule="evenodd">
        <g id="Group-8-Copy-2" transform="translate(-145.000000, 0.000000)" fill="#FFFFFF">
            <path d="M166.875,22.65625 L148.125,22.65625 C147.69375,22.65625 147.34375,22.30625 147.34375,21.875 L147.34375,10.15625 L150.46875,10.15625 C150.061719,10.7421875 149.924219,11.8351562 149.924219,12.5289063 C149.924219,16.7125 153.335938,20.1164063 157.528906,20.1164063 C161.722656,20.1164063 165.134375,16.7125 165.134375,12.5289063 C165.134375,11.8351562 165.035937,10.7585937 164.53125,10.15625 L167.65625,10.15625 L167.65625,21.875 C167.65625,22.30625 167.30625,22.65625 166.875,22.65625 M157.528906,7.7328125 C160.184375,7.7328125 162.336719,9.88046875 162.336719,12.5289063 C162.336719,15.178125 160.184375,17.3257813 157.528906,17.3257813 C154.874219,17.3257813 152.721875,15.178125 152.721875,12.5289063 C152.721875,9.88046875 154.874219,7.7328125 157.528906,7.7328125 M163.75,3.125 L166.09375,3.125 C166.525,3.125 166.875,3.475 166.875,3.90625 L166.875,6.25 C166.875,6.68125 166.525,7.03125 166.09375,7.03125 L163.75,7.03125 C163.31875,7.03125 162.96875,6.68125 162.96875,6.25 L162.96875,3.90625 C162.96875,3.475 163.31875,3.125 163.75,3.125 M167.028125,0 L147.971875,0 C146.330469,0 145,1.32734375 145,2.96484375 L145,22.0351563 C145,23.6726563 146.330469,25 147.971875,25 L167.028125,25 C168.669531,25 170,23.6726563 170,22.0351563 L170,2.96484375 C170,1.32734375 168.669531,0 167.028125,0" id="instagram"></path>
        </g>
    </g>
</svg>