<?xml version="1.0" encoding="UTF-8"?>
<svg width="25px" height="24px" viewBox="0 0 25 24" version="1.1" xmlns="http://www.w3.org/2000/svg" xmlns:xlink="http://www.w3.org/1999/xlink">
    <!-- Generator: Sketch 50.2 (55047) - http://www.bohemiancoding.com/sketch -->
    <title>itunes-store</title>
    <desc>Created with Sketch.</desc>
    <defs></defs>
    <g id="UI" stroke="none" stroke-width="1" fill="none" fill-rule="evenodd">
        <g id="Group-8-Copy-2" transform="translate(-288.000000, 0.000000)" fill="#FFFFFF" fill-rule="nonzero">
            <g id="itunes-store" transform="translate(288.000000, 0.000000)">
                <path d="M17.1049917,0.0201 C17.338325,0.0201 17.5716583,0.0202666667 17.8049917,0.0216833333 C18.0411583,0.0231 18.2772417,0.02585 18.5134083,0.0321833333 C19.027825,0.0461 19.546825,0.0764333333 20.055575,0.167933333 C20.5716583,0.260683333 21.052075,0.4121 21.5209917,0.650766667 C21.9819083,0.885433333 22.4036583,1.19193333 22.769325,1.55768333 C23.1349917,1.92335 23.4414917,2.34493333 23.676075,2.80585 C23.915,3.27501667 24.0664083,3.7556 24.1592417,4.27201667 C24.250575,4.7806 24.2809083,5.29935 24.294825,5.81368333 C24.3011583,6.04976667 24.3039083,6.28585 24.305325,6.52201667 C24.3067417,6.74726667 24.3069083,6.97251667 24.3069083,7.19776667 L24.3069083,16.3166 C24.3069083,16.54185 24.3067417,16.7671 24.305325,16.99235 C24.3039083,17.2285167 24.3011583,17.4646 24.294825,17.7006833 C24.2809083,18.2150167 24.250575,18.7337667 24.1592417,19.2422667 C24.0664083,19.7587667 23.915,20.23935 23.676075,20.7085167 C23.4414917,21.16935 23.1349917,21.5910167 22.769325,21.9566833 C22.4036583,22.3224333 21.9819083,22.6289333 21.5209917,22.8636 C21.052075,23.1022667 20.5716583,23.2536833 20.055575,23.3464333 C19.546825,23.4379333 19.027825,23.4682667 18.5134083,23.4821833 C18.2772417,23.4885167 18.0411583,23.4912667 17.8049917,23.4926833 C17.5719,23.4941 17.338825,23.4942667 17.1056583,23.4942667 L16.9639083,23.4942667 L8.17574167,23.4942667 L8.03399167,23.4942667 C7.80090833,23.4942667 7.56774167,23.4941 7.33465833,23.4926833 C7.09849167,23.4912667 6.86240833,23.4885167 6.62624167,23.4821833 C6.111825,23.4682667 5.592825,23.4379333 5.084075,23.3464333 C4.56799167,23.2536833 4.087575,23.1022667 3.61865833,22.8636 C3.15774167,22.6289333 2.73599167,22.3224333 2.370325,21.9566833 C2.00465833,21.5910167 1.69815833,21.16935 1.463575,20.7085167 C1.22465833,20.23935 1.07315833,19.7587667 0.980408333,19.2422667 C0.889075,18.7337667 0.858741667,18.2150167 0.844825,17.7006833 C0.838491667,17.4646 0.835741667,17.2285167 0.834325,16.99235 C0.832908333,16.7674333 0.832741667,16.5426 0.832741667,16.3176833 L0.832741667,16.1512667 L0.832741667,7.3631 L0.832741667,7.19668333 C0.832741667,6.97176667 0.832908333,6.74693333 0.834325,6.52201667 C0.835741667,6.28585 0.838491667,6.04976667 0.844825,5.81368333 C0.858741667,5.29935 0.889075,4.7806 0.980408333,4.27201667 C1.07315833,3.7556 1.22465833,3.27501667 1.463575,2.80585 C1.69815833,2.34493333 2.00465833,1.92335 2.370325,1.55768333 C2.73599167,1.19193333 3.15774167,0.885433333 3.61865833,0.650766667 C4.087575,0.4121 4.56799167,0.260683333 5.084075,0.167933333 C5.592825,0.0764333333 6.111825,0.0461 6.62624167,0.0321833333 C6.86240833,0.02585 7.09849167,0.0231 7.33465833,0.0216833333 C7.56799167,0.0202666667 7.801325,0.0201 8.03465833,0.0201 L17.1049917,0.0201 Z M21.245075,9.2676 C21.2302417,9.22193333 21.2019917,9.18076667 21.1612417,9.14601667 C21.119825,9.11051667 21.068325,9.0836 21.0061583,9.06176667 C20.9959917,9.0581 20.985575,9.05468333 20.9749917,9.05143333 C20.88715,9.02418333 20.7957333,9.01001667 20.7039,9.00518333 C20.4352333,8.99068333 20.16615,8.98343333 19.8969,8.98343333 L14.8203167,8.98326667 L13.2517333,4.15543333 C13.1684833,3.89951667 13.0785667,3.64576667 12.9817333,3.39468333 C12.9487333,3.30885 12.9070667,3.22626667 12.8539833,3.1511 C12.8475667,3.1421 12.8409833,3.13326667 12.8344833,3.1246 C12.7945667,3.07235 12.7529,3.03168333 12.7064,3.00318333 C12.6607333,2.97526667 12.6129,2.96101667 12.5649,2.96101667 C12.5169,2.96101667 12.4690667,2.97526667 12.4233167,3.00318333 C12.3768083,3.03168333 12.3354,3.07235 12.2953167,3.1246 C12.2887333,3.13326667 12.2822333,3.1421 12.2757333,3.1511 C12.2228167,3.22626667 12.1809833,3.30885 12.1479833,3.39468333 C12.05115,3.64576667 11.9612333,3.89951667 11.8780667,4.15543333 L10.30915,8.98343333 L5.23290833,8.98343333 C4.96374167,8.98343333 4.69465833,8.99068333 4.425825,9.00518333 C4.33399167,9.01001667 4.24265833,9.02418333 4.15474167,9.05143333 C4.14415833,9.05468333 4.133825,9.0581 4.123575,9.06176667 C4.06140833,9.0836 4.00990833,9.11051667 3.96849167,9.14601667 C3.92774167,9.18076667 3.89949167,9.22193333 3.88465833,9.2676 C3.86974167,9.31326667 3.86849167,9.36318333 3.88099167,9.41526667 C3.89365833,9.46826667 3.91949167,9.52035 3.95699167,9.5746 C3.96315833,9.58343333 3.96949167,9.59235 3.976075,9.60126667 C4.03124167,9.67493333 4.096825,9.7401 4.16824167,9.79801667 C4.377325,9.96768333 4.59065833,10.1316833 4.80840833,10.2899333 L8.91490833,13.2736 L7.34665833,18.1017667 C7.26340833,18.3577667 7.18724167,18.6159333 7.11774167,18.8759333 C7.094075,18.96485 7.07924167,19.0561833 7.07815833,19.1481 C7.07790833,19.1591833 7.07790833,19.1701 7.07824167,19.1809333 C7.07990833,19.24685 7.08949167,19.3041 7.11049167,19.3546 C7.13099167,19.4040167 7.16124167,19.4436833 7.20015833,19.47185 C7.23915833,19.5001 7.286075,19.5166833 7.339575,19.5209333 C7.393825,19.5252667 7.45140833,19.5167667 7.51449167,19.4979333 C7.52499167,19.49485 7.53524167,19.4915167 7.54583333,19.4879333 C7.63291667,19.45835 7.71515833,19.4160167 7.79233333,19.3661 C8.01825,19.2197667 8.24025,19.0674333 8.45791667,18.9092667 L12.5655833,15.9251833 L16.6555,18.8965167 C16.87325,19.0546833 17.0950833,19.2070167 17.321,19.3532667 C17.39825,19.4032667 17.4804167,19.4456 17.5676667,19.4751833 C17.5781667,19.4787667 17.5885833,19.4821 17.5988333,19.4851833 C17.6620833,19.5040167 17.7195833,19.5125167 17.7739167,19.5081833 C17.82725,19.5039333 17.8743333,19.48735 17.9131667,19.4591 C17.9520833,19.4309333 17.9824167,19.3912667 18.0029167,19.3417667 C18.0238333,19.2914333 18.0335,19.2341 18.03525,19.1681833 C18.0354167,19.15735 18.0354167,19.1464333 18.0353333,19.13535 C18.0340833,19.0434333 18.01925,18.9521 17.9955833,18.8631833 C17.9263333,18.6031833 17.8500833,18.3450167 17.7668333,18.0890167 L16.20475,13.2811833 L16.2145833,13.2739333 L16.2145,13.2737667 L20.3214167,10.2899333 C20.53925,10.1316833 20.7526667,9.96768333 20.9615,9.79801667 C21.0330833,9.7401 21.0986667,9.67493333 21.15375,9.60126667 C21.1603333,9.59235 21.16675,9.58343333 21.1729167,9.5746 C21.21025,9.52035 21.2361667,9.46826667 21.2488333,9.41526667 C21.2612417,9.36318333 21.260075,9.31326667 21.245075,9.2676 Z" id="Shape"></path>
            </g>
        </g>
    </g>
</svg>