<?xml version="1.0" encoding="UTF-8"?>
<svg width="43px" height="22px" viewBox="0 0 43 22" version="1.1" xmlns="http://www.w3.org/2000/svg" xmlns:xlink="http://www.w3.org/1999/xlink">
    <!-- Generator: Sketch 50.2 (55047) - http://www.bohemiancoding.com/sketch -->
    <title>tidal</title>
    <desc>Created with Sketch.</desc>
    <defs></defs>
    <g id="UI" stroke="none" stroke-width="1" fill="none" fill-rule="evenodd">
        <g id="Group-8-Copy-2" transform="translate(-581.000000, -2.000000)" fill="#FFFFFF" fill-rule="nonzero">
            <g id="tidal" transform="translate(581.000000, 2.000000)">
                <path d="M17.3493305,0 L17.3725869,0 C17.5499757,0.209106797 17.7505047,0.394315675 17.9394635,0.594460752 L19.2243838,1.91482081 L19.2243838,1.93871873 C18.6023312,2.57500084 17.9830694,3.21725744 17.3609587,3.85353955 C16.7359409,3.2142702 16.1138302,2.5720136 15.4888125,1.93274425 C15.5208483,1.87001221 15.5818384,1.82819085 15.6283513,1.77740778 C16.201042,1.18294702 16.7824539,0.597447992 17.3493305,0 Z M21.0994371,0 L21.1226936,0 C21.1401941,0.0268851596 21.1575783,0.0507830793 21.1808348,0.074680999 C21.782596,0.68706519 22.3756943,1.3084111 22.9832116,1.91780805 C22.9686763,1.95365493 22.9366986,1.97755285 22.9105351,2.00443801 C22.3088319,2.61980944 21.7099196,3.23816812 21.1081583,3.85353955 C20.4802334,3.21725744 19.8639368,2.56902636 19.233105,1.93573149 C19.8435874,1.28152594 20.4860476,0.651218311 21.0994371,0 Z M24.8495437,0 L24.8728002,0 C24.9890826,0.143387518 25.1257144,0.265864356 25.2507179,0.400290154 C25.7216615,0.884223028 26.1897562,1.36516866 26.6606417,1.84910153 C26.6839563,1.87598669 26.7217481,1.89988461 26.7304111,1.93871873 C26.0995793,2.56902636 25.4890968,3.22323192 24.8553578,3.85353955 L23.0675163,2.01638697 C23.0384457,1.98352733 23.0006539,1.95962941 22.9861186,1.91780805 C23.3029881,1.60116062 23.6111364,1.27555146 23.9250988,0.955916787 C24.2332471,0.636282111 24.5472095,0.325609155 24.8495437,0 Z M19.2592685,5.75043692 C19.872658,5.12012929 20.4889546,4.48982166 21.1023442,3.85652679 L21.1284495,3.86847575 C21.7447461,4.50475786 22.3610427,5.14103997 22.9831534,5.7713476 C22.9628622,5.81914344 22.9192563,5.8460286 22.8872205,5.88486272 C22.4395915,6.34191043 21.9918462,6.80493263 21.544159,7.26198034 C21.3988061,7.40536786 21.2592672,7.56667882 21.1110653,7.70110461 C20.89885,7.50394678 20.704077,7.28289102 20.4976177,7.0797587 C20.0790592,6.64959615 19.6633498,6.21943359 19.2418261,5.79225828 C19.2476403,5.78030932 19.2534544,5.76238588 19.2592685,5.75043692 Z M0,14.0370406 L5.59318228,14.0370406 C5.59608934,14.4970158 5.59608934,14.9571105 5.59318228,15.4141582 L3.57859012,15.4141582 L3.57859012,20.8509349 C3.57568306,20.9405521 3.58440423,21.0301693 3.56696188,21.1197865 L2.0116851,21.1197865 C2.01749922,19.2169147 2.01459216,17.31703 2.01459216,15.4141582 L0,15.4141582 L0,14.0370406 Z M10.2590126,14.0370406 C10.7822833,14.0370406 11.305554,14.0370406 11.8288247,14.0400278 C11.8259176,16.3999474 11.8346388,18.7598669 11.8230106,21.1197865 L10.2619197,21.1197865 C10.2531985,20.4924661 10.2590126,19.8651457 10.2561055,19.2378253 C10.2590126,17.5052262 10.2561055,15.772627 10.2590126,14.0370406 Z M37.9371251,14.0370406 C38.4603958,14.0370406 38.9836665,14.0370406 39.5069372,14.0400278 L39.5069372,19.6978603 C40.4168468,19.703775 41.3296634,19.7008475 42.239573,19.7008475 L42.239573,21.1197865 L37.9400322,21.1197865 C37.931311,18.7598669 37.9400322,16.3999474 37.9371251,14.0370406 Z M23.1808916,16.4118963 C23.0239104,15.85621 22.7186692,15.3514261 22.2942385,14.9720467 C21.733176,14.4612286 21.0005971,14.1834153 20.265111,14.0848364 C19.8494016,14.0221044 19.4278779,14.0400278 19.0093195,14.0370406 L17.1517086,14.0370406 C17.1168239,14.0370406 17.0790321,14.0400278 17.0441474,14.0460023 C17.0528686,16.3850112 17.0441474,18.7240201 17.0499615,21.0629692 C17.0470544,21.0779054 17.0441474,21.1047906 17.0412403,21.1197268 L19.7273051,21.1197268 C19.9686491,21.0749182 20.2157492,21.0779054 20.4540699,21.0241351 C21.2680465,20.8717858 22.0500455,20.4565595 22.5820374,19.7963795 C22.9744904,19.3184211 23.2157763,18.7179261 23.2942669,18.0996272 C23.3640364,17.5350986 23.3349658,16.955574 23.1808916,16.4118963 Z M21.4104924,18.7628542 C21.2157195,19.0824889 20.9279206,19.3364043 20.5936088,19.4917407 C20.2912746,19.6351282 19.9569627,19.7008475 19.6254998,19.7098092 C19.2766527,19.7128562 18.9278056,19.7098092 18.5789585,19.7128562 C18.5615161,19.3154936 18.5760514,18.9181907 18.5702373,18.5209475 C18.5702373,17.4843752 18.5702373,16.4507902 18.5732025,15.4142179 L19.6517215,15.4142179 C20.1924346,15.4261669 20.7418688,15.6173502 21.1343218,16.0116659 C21.486076,16.361173 21.683756,16.8540676 21.7157337,17.3529367 C21.7477113,17.839797 21.6604996,18.3446406 21.4104924,18.7628542 Z M33.0997783,19.4529066 C32.4427829,17.8129119 31.7886945,16.1699299 31.1259431,14.5329224 C31.0648367,14.3686242 31.0009105,14.2013388 30.928234,14.043015 C30.3874919,14.0340533 29.846837,14.0340533 29.3060658,14.043015 C28.3816209,16.3282536 27.457176,18.6134922 26.5327892,20.8957435 C26.5037186,20.9704245 26.4688339,21.0421183 26.4542986,21.1197865 L28.1258578,21.1197865 C28.2915602,20.6478026 28.4688908,20.1817932 28.6345932,19.7098092 C29.5822945,19.694873 30.532903,19.706822 31.4835114,19.7038348 C31.5329314,19.6888986 31.5474667,19.7427286 31.5590949,19.7785158 C31.7189832,20.2266018 31.8818367,20.6717005 32.0387597,21.1197865 L33.7627041,21.1197865 C33.5532795,20.5581854 33.3207148,20.0085332 33.0997783,19.4529066 Z M29.0764081,18.4521812 C29.0676869,18.3893894 29.1054787,18.3356789 29.122921,18.2789213 C29.4397905,17.4275579 29.7654393,16.5761945 30.0793436,15.7248311 C30.0851577,15.7217842 30.0967859,15.7188567 30.1026,15.7188567 C30.4310978,16.6150286 30.7654096,17.5081537 31.0968144,18.4043256 C31.0968144,18.4162746 31.0997214,18.4401725 31.0997214,18.4521812 C30.4252836,18.4462067 29.7508459,18.4462067 29.0764081,18.4521812 Z" id="Shape"></path>
            </g>
        </g>
    </g>
</svg>